<svg xmlns="http://www.w3.org/2000/svg" xmlns:xlink="http://www.w3.org/1999/xlink" version="1.1" width="1000" height="1000" viewBox="0 0 1000 1000" xml:space="preserve">
<desc>Created with Fabric.js 3.5.0</desc>
<defs>
</defs>
<rect x="0" y="0" width="100%" height="100%" fill="#000000"/>
<g transform="matrix(1.943 0 0 1.943 499.9987 499.9987)" id="97475">
<g style="" vector-effect="non-scaling-stroke">
		<g transform="matrix(0.1333 0 0 -0.1333 1.0698 -88.1626)">
<path style="stroke: none; stroke-width: 1; stroke-dasharray: none; stroke-linecap: butt; stroke-dashoffset: 0; stroke-linejoin: miter; stroke-miterlimit: 4; is-custom-font: none; font-file-url: none; fill: rgb(255,255,255); fill-rule: nonzero; opacity: 1;" transform=" translate(-1938.5, -2590.9035)" d="M 1857 3854 c -1 -1 -40 -4 -87 -7 c -260 -18 -593 -128 -830 -274 c -182 -113 -402 -312 -523 -475 c -257 -345 -385 -726 -385 -1148 c 0 -191 18 -334 62 -505 c 16 -60 28 -95 36 -100 c 5 -3 27 2 48 11 l 40 15 l -19 67 c -27 95 -46 178 -54 242 c -4 30 -9 69 -12 85 c -7 44 -6 302 1 355 c 4 25 9 63 12 85 c 39 286 160 578 342 825 c 259 351 689 621 1107 695 c 267 48 536 40 780 -22 c 308 -78 592 -233 808 -441 c 306 -294 497 -664 553 -1071 c 3 -25 8 -57 10 -71 c 2 -14 5 -93 5 -176 c 0 -161 -22 -330 -62 -474 c -35 -127 -36 -116 14 -133 c 41 -14 46 -14 50 1 c 17 56 46 161 51 182 c 2 14 9 49 15 79 c 20 100 26 176 26 346 c 0 170 -6 242 -30 365 c -3 14 -7 34 -9 45 c -36 187 -150 456 -269 636 c -323 487 -836 798 -1412 855 c -58 5 -263 12 -268 8 z" stroke-linecap="round"/>
</g>
		<g transform="matrix(0.1333 0 0 -0.1333 1.2057 -80.5574)">
<path style="stroke: none; stroke-width: 1; stroke-dasharray: none; stroke-linecap: butt; stroke-dashoffset: 0; stroke-linejoin: miter; stroke-miterlimit: 4; is-custom-font: none; font-file-url: none; fill: rgb(255,255,255); fill-rule: nonzero; opacity: 1;" transform=" translate(-1939.4791, -2533.892)" d="M 1675 3670 c -173 -28 -257 -51 -415 -118 c -139 -58 -270 -135 -395 -231 c -71 -54 -236 -216 -289 -284 c -167 -212 -293 -481 -346 -742 c -56 -275 -45 -581 32 -838 c 22 -73 18 -71 85 -46 c 20 7 21 9 6 51 c -83 242 -91 632 -17 898 c 8 30 19 69 23 85 c 15 57 72 190 121 282 c 156 293 394 527 701 691 c 146 77 308 130 504 163 c 152 26 425 21 574 -10 c 344 -72 640 -235 874 -480 c 263 -277 413 -598 454 -971 c 13 -120 7 -356 -11 -446 c -2 -12 -7 -37 -10 -55 c -3 -19 -17 -73 -31 -122 c -14 -48 -25 -89 -25 -91 c 0 -5 60 -26 74 -26 c 9 0 56 139 62 180 c 0 5 14 82 20 114 c 28 150 23 424 -11 596 c -124 636 -582 1150 -1196 1341 c -53 16 -110 32 -126 35 c -15 3 -35 7 -43 9 c -16 5 -44 9 -150 24 c -103 15 -343 10 -465 -9 z" stroke-linecap="round"/>
</g>
		<g transform="matrix(0.1333 0 0 -0.1333 -98.3543 -20.076)">
<path style="stroke: none; stroke-width: 1; stroke-dasharray: none; stroke-linecap: butt; stroke-dashoffset: 0; stroke-linejoin: miter; stroke-miterlimit: 4; is-custom-font: none; font-file-url: none; fill: rgb(255,255,255); fill-rule: nonzero; opacity: 1;" transform=" translate(-1192.5, -2080.3356)" d="M 1055 3006 c -279 -64 -487 -313 -489 -586 l -1 -85 l 243 -1 l 242 -1 l 1 31 c 2 100 47 154 132 161 c 77 6 134 -44 143 -127 c 5 -44 -10 -73 -66 -130 c -8 -8 -58 -62 -110 -119 c -92 -100 -210 -229 -220 -239 c -19 -19 -221 -242 -246 -271 c -30 -35 -34 -65 -25 -169 c 1 -15 35 18 206 205 c 50 54 95 103 100 109 c 6 6 64 70 130 141 c 177 192 207 225 259 280 c 70 75 81 98 80 185 c 0 76 -16 121 -63 174 c -56 63 -172 90 -261 61 c -62 -21 -132 -86 -150 -140 c -6 -19 -17 -36 -23 -36 c -7 -1 -67 -2 -134 -3 c -138 -1 -135 -4 -112 79 c 40 144 140 265 274 329 c 84 41 155 56 255 51 c 287 -11 513 -274 486 -564 c -9 -105 -44 -202 -93 -257 c -49 -57 -114 -128 -202 -223 c -53 -57 -109 -118 -125 -135 c -51 -56 -240 -258 -302 -326 c -128 -135 -135 -147 -132 -204 l 3 -51 l 483 0 l 482 -1 l 0 211 l 0 210 l -191 0 l -191 0 l -50 -55 l -50 -55 l 194 -3 l 193 -2 l -3 -92 c -1 -51 -4 -94 -6 -96 c -5 -5 -696 -5 -701 0 c -2 2 20 28 48 59 c 29 31 97 104 152 164 c 55 60 109 118 120 130 c 11 11 45 48 75 81 c 30 32 107 114 170 182 c 186 200 234 299 235 492 c 0 120 -4 152 -34 234 c -63 180 -213 323 -400 386 c -83 28 -242 35 -326 16 z" stroke-linecap="round"/>
</g>
		<g transform="matrix(0.1333 0 0 -0.1333 86.2906 -19.4749)">
<path style="stroke: none; stroke-width: 1; stroke-dasharray: none; stroke-linecap: butt; stroke-dashoffset: 0; stroke-linejoin: miter; stroke-miterlimit: 4; is-custom-font: none; font-file-url: none; fill: rgb(0,153,107); fill-rule: nonzero; opacity: 1;" transform=" translate(-2577.3645, -2075.8287)" d="M 2046 2958 c -98 -112 -147 -264 -141 -434 c 9 -250 119 -403 361 -504 c 69 -28 280 -96 329 -106 c 163 -31 231 -69 330 -185 c 80 -94 132 -230 142 -376 l 6 -72 l -36 -6 c -53 -10 -134 2 -195 30 c -68 31 -138 103 -231 239 c -90 129 -156 199 -219 226 c -67 30 -156 33 -245 9 c -72 -21 -223 -91 -278 -130 l -30 -21 l 23 -16 c 55 -39 96 -85 183 -208 c 103 -144 145 -186 220 -220 c 93 -42 197 -49 345 -24 c 80 14 80 13 -20 45 c -30 9 -76 31 -101 48 c -42 29 -306 277 -295 277 c 13 0 93 -54 201 -135 c 180 -137 286 -179 432 -174 c 95 3 208 33 263 68 c 39 26 102 98 143 164 c 103 167 110 392 20 572 c -32 62 -153 183 -213 212 c -25 12 -164 63 -310 114 c -289 100 -323 114 -390 167 c -120 95 -222 290 -232 445 c -1 21 -5 40 -9 43 c -4 2 -28 -19 -53 -48 z" stroke-linecap="round"/>
</g>
		<g transform="matrix(0.1333 0 0 -0.1333 214.4885 98.6412)">
<path style="stroke: none; stroke-width: 1; stroke-dasharray: none; stroke-linecap: butt; stroke-dashoffset: 0; stroke-linejoin: miter; stroke-miterlimit: 4; is-custom-font: none; font-file-url: none; fill: rgb(255,255,255); fill-rule: nonzero; opacity: 1;" transform=" translate(-3538.7006, -1190.1613)" d="M 3427 1221 c -40 -86 -43 -97 -29 -108 c 23 -19 28 -16 42 17 c 7 17 16 30 21 30 c 5 0 50 -20 99 -45 c 49 -25 93 -45 98 -45 c 4 0 12 13 18 29 l 11 28 l -98 49 c -55 26 -99 49 -99 50 c 0 1 6 17 14 35 c 14 33 13 35 -9 45 c -22 11 -25 7 -68 -85 z" stroke-linecap="round"/>
</g>
		<g transform="matrix(0.1333 0 0 -0.1333 -211.9576 104.1939)">
<path style="stroke: none; stroke-width: 1; stroke-dasharray: none; stroke-linecap: butt; stroke-dashoffset: 0; stroke-linejoin: miter; stroke-miterlimit: 4; is-custom-font: none; font-file-url: none; fill: rgb(255,255,255); fill-rule: nonzero; opacity: 1;" transform=" translate(-340.3547, -1148.5087)" d="M 320 1291 c -95 -23 -145 -99 -119 -181 c 16 -48 66 -98 106 -106 c 44 -8 111 17 149 57 c 39 41 41 117 4 172 c -32 47 -89 71 -140 58 z m 93 -89 c 52 -45 -29 -143 -106 -128 c -83 17 -71 110 18 140 c 41 15 59 12 88 -12 z" stroke-linecap="round"/>
</g>
		<g transform="matrix(0.1333 0 0 -0.1333 184.6494 147.1954)">
<path style="stroke: none; stroke-width: 1; stroke-dasharray: none; stroke-linecap: butt; stroke-dashoffset: 0; stroke-linejoin: miter; stroke-miterlimit: 4; is-custom-font: none; font-file-url: none; fill: rgb(255,255,255); fill-rule: nonzero; opacity: 1;" transform=" translate(-3314.9018, -825.9967)" d="M 3295 970 c -18 -7 -105 -108 -105 -122 c 0 -3 48 -43 107 -88 l 107 -83 l 18 23 c 19 23 23 40 11 40 c -5 0 -21 12 -37 26 l -29 25 l 22 39 c 27 48 27 82 -1 114 c -25 28 -62 38 -93 26 z m 45 -75 c 10 -12 10 -21 2 -40 c -14 -30 -19 -30 -52 -6 c -24 19 -24 20 -6 40 c 23 25 39 27 56 6 z" stroke-linecap="round"/>
</g>
		<g transform="matrix(0.1333 0 0 -0.1333 -182.2935 153.9951)">
<path style="stroke: none; stroke-width: 1; stroke-dasharray: none; stroke-linecap: butt; stroke-dashoffset: 0; stroke-linejoin: miter; stroke-miterlimit: 4; is-custom-font: none; font-file-url: none; fill: rgb(255,255,255); fill-rule: nonzero; opacity: 1;" transform=" translate(-562.8358, -775)" d="M 575 910 c -3 -5 -3 -20 0 -33 c 5 -18 12 -23 29 -20 c 26 5 49 -18 40 -40 c -3 -9 -19 -19 -35 -22 c -28 -6 -135 1 -150 11 c -12 7 -37 -6 -43 -23 c -7 -16 100 -153 120 -153 c 6 0 17 7 24 15 c 11 13 9 20 -11 43 c -52 57 -53 61 -17 53 c 95 -21 178 16 178 79 c 0 44 -53 100 -95 100 c -19 0 -36 -4 -40 -10 z" stroke-linecap="round"/>
</g>
		<g transform="matrix(0.1333 0 0 -0.1333 153.9653 183.1531)">
<path style="stroke: none; stroke-width: 1; stroke-dasharray: none; stroke-linecap: butt; stroke-dashoffset: 0; stroke-linejoin: miter; stroke-miterlimit: 4; is-custom-font: none; font-file-url: none; fill: rgb(255,255,255); fill-rule: nonzero; opacity: 1;" transform=" translate(-3084.7789, -556.3129)" d="M 3015 683 c -22 -19 -51 -44 -64 -54 l -23 -18 l 87 -106 c 47 -58 88 -105 91 -105 c 2 0 36 26 74 57 c 69 57 70 58 51 77 c -19 19 -20 18 -62 -18 c -40 -34 -44 -35 -61 -19 c -25 23 -23 32 19 68 c 35 30 36 33 20 49 c -16 16 -19 15 -57 -15 l -39 -32 l -19 23 c -19 23 -19 23 17 54 c 20 17 38 32 40 33 c 3 2 -4 12 -15 23 c -19 19 -19 19 -59 -17 z" stroke-linecap="round"/>
</g>
		<g transform="matrix(0.1333 0 0 -0.1333 -144.0109 188.1508)">
<path style="stroke: none; stroke-width: 1; stroke-dasharray: none; stroke-linecap: butt; stroke-dashoffset: 0; stroke-linejoin: miter; stroke-miterlimit: 4; is-custom-font: none; font-file-url: none; fill: rgb(255,255,255); fill-rule: nonzero; opacity: 1;" transform=" translate(-849.953, -518.834)" d="M 823 640 c -13 -11 -24 -27 -24 -35 c -1 -8 -2 -21 -4 -27 c -1 -7 11 -36 27 -64 c 24 -44 26 -53 14 -64 c -23 -18 -56 -2 -63 30 c -4 20 -14 32 -34 39 c -28 10 -29 9 -29 -23 c 0 -57 64 -116 125 -116 c 29 0 85 49 85 73 c 0 8 -13 40 -29 70 c -20 38 -26 59 -19 70 c 13 24 58 2 58 -28 c 0 -17 7 -24 28 -28 c 34 -7 36 -5 28 35 c -14 68 -118 112 -163 68 z" stroke-linecap="round"/>
</g>
		<g transform="matrix(0.1333 0 0 -0.1333 110.7657 211.0248)">
<path style="stroke: none; stroke-width: 1; stroke-dasharray: none; stroke-linecap: butt; stroke-dashoffset: 0; stroke-linejoin: miter; stroke-miterlimit: 4; is-custom-font: none; font-file-url: none; fill: rgb(255,255,255); fill-rule: nonzero; opacity: 1;" transform=" translate(-2760.7778, -347.2773)" d="M 2698 473 c -76 -42 -96 -109 -57 -190 c 37 -77 104 -102 183 -69 c 40 17 76 60 76 92 c 0 21 -5 24 -34 24 c -28 0 -33 -3 -29 -19 c 3 -12 -5 -26 -22 -39 c -24 -19 -30 -20 -57 -9 c -51 21 -83 101 -58 147 c 12 23 58 34 77 19 c 11 -10 18 -8 36 9 c 20 20 20 23 5 38 c -26 26 -69 25 -120 -3 z" stroke-linecap="round"/>
</g>
		<g transform="matrix(0.1333 0 0 -0.1333 -66.2124 227.9948)">
<path style="stroke: none; stroke-width: 1; stroke-dasharray: none; stroke-linecap: butt; stroke-dashoffset: 0; stroke-linejoin: miter; stroke-miterlimit: 4; is-custom-font: none; font-file-url: none; fill: rgb(255,255,255); fill-rule: nonzero; opacity: 1;" transform=" translate(-1433.441, -220.0026)" d="M 1394 360 c -41 -13 -73 -49 -88 -101 c -30 -100 22 -176 126 -184 c 43 -3 88 17 88 39 c 0 6 -11 19 -24 28 c -21 15 -25 15 -30 3 c -9 -25 -62 -18 -84 10 c -17 21 -18 31 -10 67 c 11 53 43 88 78 88 c 27 0 60 -27 60 -48 c 0 -14 29 -15 50 -2 c 23 14 1 60 -40 81 c -46 24 -88 30 -126 19 z" stroke-linecap="round"/>
</g>
		<g transform="matrix(0.1333 0 0 -0.1333 52.5414 232.4519)">
<path style="stroke: none; stroke-width: 1; stroke-dasharray: none; stroke-linecap: butt; stroke-dashoffset: 0; stroke-linejoin: miter; stroke-miterlimit: 4; is-custom-font: none; font-file-url: none; fill: rgb(255,255,255); fill-rule: nonzero; opacity: 1;" transform=" translate(-2324.0976, -186.571)" d="M 2377 343 c -19 -5 -18 -25 8 -126 c 14 -54 19 -57 -85 35 c -54 47 -70 55 -93 51 c -35 -7 -38 -13 -27 -54 c 4 -19 18 -77 30 -130 c 20 -93 22 -96 46 -91 c 35 6 38 21 20 99 c -8 37 -14 68 -13 69 c 1 2 36 -26 76 -62 c 71 -61 100 -74 129 -55 c 11 6 7 33 -16 137 c -29 131 -33 138 -75 127 z" stroke-linecap="round"/>
</g>
		<g transform="matrix(0.1333 0 0 -0.1333 -9.5747 237.3436)">
<path style="stroke: none; stroke-width: 1; stroke-dasharray: none; stroke-linecap: butt; stroke-dashoffset: 0; stroke-linejoin: miter; stroke-miterlimit: 4; is-custom-font: none; font-file-url: none; fill: rgb(255,255,255); fill-rule: nonzero; opacity: 1;" transform=" translate(-1858.2253, -149.8863)" d="M 1845 293 c -50 -9 -63 -14 -82 -30 c -31 -28 -45 -61 -46 -112 c 0 -55 21 -101 60 -127 c 37 -24 128 -25 165 0 c 66 44 78 170 21 227 c -30 30 -80 48 -118 42 z m 65 -80 c 18 -23 21 -36 16 -73 c -7 -52 -33 -83 -71 -83 c -38 0 -57 24 -62 80 c -6 60 22 103 67 103 c 19 0 36 -9 50 -27 z" stroke-linecap="round"/>
</g>
</g>
</g>
</svg>