<?xml version="1.0" standalone="no"?>
<!DOCTYPE svg PUBLIC "-//W3C//DTD SVG 20010904//EN"
 "http://www.w3.org/TR/2001/REC-SVG-20010904/DTD/svg10.dtd">
<svg version="1.0" xmlns="http://www.w3.org/2000/svg"
 width="386.000000pt" height="386.000000pt" viewBox="0 0 386.000000 386.000000"
 preserveAspectRatio="xMidYMid meet">
<metadata>
Created by potrace 1.14, written by Peter Selinger 2001-2017
</metadata>
<style>svg { background-color: black; }</style>
<g transform="translate(0.000000,386.000000) scale(0.100000,-0.100000)"
fill="#000000" stroke="none">
<path fill="#ffffff" d="M1857 3854 c-1 -1 -40 -4 -87 -7 -260 -18 -593 -128 -830 -274 -182
-113 -402 -312 -523 -475 -257 -345 -385 -726 -385 -1148 0 -191 18 -334 62
-505 16 -60 28 -95 36 -100 5 -3 27 2 48 11 l40 15 -19 67 c-27 95 -46 178
-54 242 -4 30 -9 69 -12 85 -7 44 -6 302 1 355 4 25 9 63 12 85 39 286 160
578 342 825 259 351 689 621 1107 695 267 48 536 40 780 -22 308 -78 592 -233
808 -441 306 -294 497 -664 553 -1071 3 -25 8 -57 10 -71 2 -14 5 -93 5 -176
0 -161 -22 -330 -62 -474 -35 -127 -36 -116 14 -133 41 -14 46 -14 50 1 17 56
46 161 51 182 2 14 9 49 15 79 20 100 26 176 26 346 0 170 -6 242 -30 365 -3
14 -7 34 -9 45 -36 187 -150 456 -269 636 -323 487 -836 798 -1412 855 -58 5
-263 12 -268 8z"/>
<path fill="#ffffff" d="M1675 3670 c-173 -28 -257 -51 -415 -118 -139 -58 -270 -135 -395
-231 -71 -54 -236 -216 -289 -284 -167 -212 -293 -481 -346 -742 -56 -275 -45
-581 32 -838 22 -73 18 -71 85 -46 20 7 21 9 6 51 -83 242 -91 632 -17 898 8
30 19 69 23 85 15 57 72 190 121 282 156 293 394 527 701 691 146 77 308 130
504 163 152 26 425 21 574 -10 344 -72 640 -235 874 -480 263 -277 413 -598
454 -971 13 -120 7 -356 -11 -446 -2 -12 -7 -37 -10 -55 -3 -19 -17 -73 -31
-122 -14 -48 -25 -89 -25 -91 0 -5 60 -26 74 -26 9 0 56 139 62 180 0 5 14 82
20 114 28 150 23 424 -11 596 -124 636 -582 1150 -1196 1341 -53 16 -110 32
-126 35 -15 3 -35 7 -43 9 -16 5 -44 9 -150 24 -103 15 -343 10 -465 -9z"/>
<path fill="#ffffff" d="M1055 3006 c-279 -64 -487 -313 -489 -586 l-1 -85 243 -1 242 -1 1
31 c2 100 47 154 132 161 77 6 134 -44 143 -127 5 -44 -10 -73 -66 -130 -8 -8
-58 -62 -110 -119 -92 -100 -210 -229 -220 -239 -19 -19 -221 -242 -246 -271
-30 -35 -34 -65 -25 -169 1 -15 35 18 206 205 50 54 95 103 100 109 6 6 64 70
130 141 177 192 207 225 259 280 70 75 81 98 80 185 0 76 -16 121 -63 174 -56
63 -172 90 -261 61 -62 -21 -132 -86 -150 -140 -6 -19 -17 -36 -23 -36 -7 -1
-67 -2 -134 -3 -138 -1 -135 -4 -112 79 40 144 140 265 274 329 84 41 155 56
255 51 287 -11 513 -274 486 -564 -9 -105 -44 -202 -93 -257 -49 -57 -114
-128 -202 -223 -53 -57 -109 -118 -125 -135 -51 -56 -240 -258 -302 -326 -128
-135 -135 -147 -132 -204 l3 -51 483 0 482 -1 0 211 0 210 -191 0 -191 0 -50
-55 -50 -55 194 -3 193 -2 -3 -92 c-1 -51 -4 -94 -6 -96 -5 -5 -696 -5 -701 0
-2 2 20 28 48 59 29 31 97 104 152 164 55 60 109 118 120 130 11 11 45 48 75
81 30 32 107 114 170 182 186 200 234 299 235 492 0 120 -4 152 -34 234 -63
180 -213 323 -400 386 -83 28 -242 35 -326 16z"/>
<path fill="#00996B" d="M2046 2958 c-98 -112 -147 -264 -141 -434 9 -250 119 -403 361 -504
69 -28 280 -96 329 -106 163 -31 231 -69 330 -185 80 -94 132 -230 142 -376
l6 -72 -36 -6 c-53 -10 -134 2 -195 30 -68 31 -138 103 -231 239 -90 129 -156
199 -219 226 -67 30 -156 33 -245 9 -72 -21 -223 -91 -278 -130 l-30 -21 23
-16 c55 -39 96 -85 183 -208 103 -144 145 -186 220 -220 93 -42 197 -49 345
-24 80 14 80 13 -20 45 -30 9 -76 31 -101 48 -42 29 -306 277 -295 277 13 0
93 -54 201 -135 180 -137 286 -179 432 -174 95 3 208 33 263 68 39 26 102 98
143 164 103 167 110 392 20 572 -32 62 -153 183 -213 212 -25 12 -164 63 -310
114 -289 100 -323 114 -390 167 -120 95 -222 290 -232 445 -1 21 -5 40 -9 43
-4 2 -28 -19 -53 -48z"/>
<path fill="#ffffff" d="M3427 1221 c-40 -86 -43 -97 -29 -108 23 -19 28 -16 42 17 7 17 16
30 21 30 5 0 50 -20 99 -45 49 -25 93 -45 98 -45 4 0 12 13 18 29 l11 28 -98
49 c-55 26 -99 49 -99 50 0 1 6 17 14 35 14 33 13 35 -9 45 -22 11 -25 7 -68
-85z"/>
<path fill="#ffffff" d="M320 1291 c-95 -23 -145 -99 -119 -181 16 -48 66 -98 106 -106 44 -8
111 17 149 57 39 41 41 117 4 172 -32 47 -89 71 -140 58z m93 -89 c52 -45 -29
-143 -106 -128 -83 17 -71 110 18 140 41 15 59 12 88 -12z"/>
<path fill="#ffffff" d="M3295 970 c-18 -7 -105 -108 -105 -122 0 -3 48 -43 107 -88 l107 -83
18 23 c19 23 23 40 11 40 -5 0 -21 12 -37 26 l-29 25 22 39 c27 48 27 82 -1
114 -25 28 -62 38 -93 26z m45 -75 c10 -12 10 -21 2 -40 -14 -30 -19 -30 -52
-6 -24 19 -24 20 -6 40 23 25 39 27 56 6z"/>
<path fill="#ffffff" d="M575 910 c-3 -5 -3 -20 0 -33 5 -18 12 -23 29 -20 26 5 49 -18 40
-40 -3 -9 -19 -19 -35 -22 -28 -6 -135 1 -150 11 -12 7 -37 -6 -43 -23 -7 -16
100 -153 120 -153 6 0 17 7 24 15 11 13 9 20 -11 43 -52 57 -53 61 -17 53 95
-21 178 16 178 79 0 44 -53 100 -95 100 -19 0 -36 -4 -40 -10z"/>
<path fill="#ffffff" d="M3015 683 c-22 -19 -51 -44 -64 -54 l-23 -18 87 -106 c47 -58 88
-105 91 -105 2 0 36 26 74 57 69 57 70 58 51 77 -19 19 -20 18 -62 -18 -40
-34 -44 -35 -61 -19 -25 23 -23 32 19 68 35 30 36 33 20 49 -16 16 -19 15 -57
-15 l-39 -32 -19 23 c-19 23 -19 23 17 54 20 17 38 32 40 33 3 2 -4 12 -15 23
-19 19 -19 19 -59 -17z"/>
<path fill="#ffffff" d="M823 640 c-13 -11 -24 -27 -24 -35 -1 -8 -2 -21 -4 -27 -1 -7 11 -36
27 -64 24 -44 26 -53 14 -64 -23 -18 -56 -2 -63 30 -4 20 -14 32 -34 39 -28
10 -29 9 -29 -23 0 -57 64 -116 125 -116 29 0 85 49 85 73 0 8 -13 40 -29 70
-20 38 -26 59 -19 70 13 24 58 2 58 -28 0 -17 7 -24 28 -28 34 -7 36 -5 28 35
-14 68 -118 112 -163 68z"/>
<path fill="#ffffff" d="M2698 473 c-76 -42 -96 -109 -57 -190 37 -77 104 -102 183 -69 40 17
76 60 76 92 0 21 -5 24 -34 24 -28 0 -33 -3 -29 -19 3 -12 -5 -26 -22 -39 -24
-19 -30 -20 -57 -9 -51 21 -83 101 -58 147 12 23 58 34 77 19 11 -10 18 -8 36
9 20 20 20 23 5 38 -26 26 -69 25 -120 -3z"/>
<path fill="#ffffff" d="M1394 360 c-41 -13 -73 -49 -88 -101 -30 -100 22 -176 126 -184 43
-3 88 17 88 39 0 6 -11 19 -24 28 -21 15 -25 15 -30 3 -9 -25 -62 -18 -84 10
-17 21 -18 31 -10 67 11 53 43 88 78 88 27 0 60 -27 60 -48 0 -14 29 -15 50
-2 23 14 1 60 -40 81 -46 24 -88 30 -126 19z"/>
<path fill="#ffffff" d="M2377 343 c-19 -5 -18 -25 8 -126 14 -54 19 -57 -85 35 -54 47 -70
55 -93 51 -35 -7 -38 -13 -27 -54 4 -19 18 -77 30 -130 20 -93 22 -96 46 -91
35 6 38 21 20 99 -8 37 -14 68 -13 69 1 2 36 -26 76 -62 71 -61 100 -74 129
-55 11 6 7 33 -16 137 -29 131 -33 138 -75 127z"/>
<path fill="#ffffff" d="M1845 293 c-50 -9 -63 -14 -82 -30 -31 -28 -45 -61 -46 -112 0 -55
21 -101 60 -127 37 -24 128 -25 165 0 66 44 78 170 21 227 -30 30 -80 48 -118
42z m65 -80 c18 -23 21 -36 16 -73 -7 -52 -33 -83 -71 -83 -38 0 -57 24 -62
80 -6 60 22 103 67 103 19 0 36 -9 50 -27z"/>
</g>
</svg>
